<?xml version="1.0" encoding="utf-8"?>
<!-- Generator: Adobe Illustrator 22.1.0, SVG Export Plug-In . SVG Version: 6.00 Build 0)  -->
<svg version="1.1" id="Layer_1" xmlns="http://www.w3.org/2000/svg" xmlns:xlink="http://www.w3.org/1999/xlink" x="0px" y="0px"
	 viewBox="0 0 1080 1080" style="enable-background:new 0 0 1080 1080;" xml:space="preserve">
<style type="text/css">
	.st0{fill:#FFB321;}
	.st1{fill:none;stroke:#FFFFFF;stroke-width:20;stroke-miterlimit:10;}
	.st2{fill:#FFFFFF;}
</style>
<circle class="st0" cx="540" cy="540" r="467.9"/>
<g>
	<path class="st1" d="M568.7,689c-20.3,9-40.6,9.2-61.1,0c-1.4,2.8-2.7,5.1-3.9,7.5c-31,63-100.5,99.6-167.8,88.2
		c-72.3-12.2-126.6-67.5-135.2-138.7c-5.6-46.6,7.3-88.1,37.6-124.1c3.6-4.3,7-8.9,9.8-13.8c16.9-29.2,33.4-58.5,50.3-87.6
		c14.2-24.5,34.4-42.2,60.6-52.7c4.2-1.7,6-3.8,6.7-8.3c6-38.7,43.9-64,82.4-55.3c38,8.5,61.5,48.8,49.6,86
		c-2.2,6.8-1,10.9,3.2,16.3c6.8,8.9,12.1,18.9,17.5,27.4c13.1,0,25.9,0,38.8,0c6.8-10.2,14.4-21.2,21.5-32.6
		c0.9-1.4-0.3-4.6-1.1-6.7c-13.5-36.7,6.1-77.3,43.2-89c37.5-11.9,77.5,10.1,86.5,48.5c2,8.3,5.5,11.9,13,15.1
		c25,10.6,44.1,28.2,57.7,51.8c13.4,23.5,26.6,47.1,40.4,70.3c7.6,12.8,16.1,25.2,24.9,37.3c35.9,49.3,44.2,102.8,20.8,158.9
		c-23.3,55.8-66.7,88.7-126.6,97.4c-68.8,10.1-135.4-26.8-166-90.2C570.6,693,569.8,691.2,568.7,689z M715.9,730.1
		c56.3,0.7,103.8-45.8,104.5-102.5c0.7-56.5-45.4-104.5-100.9-105.3c-58.6-0.8-106.3,44.7-107,102
		C611.8,682.6,657.6,729.4,715.9,730.1z M359.9,730.1c57.5,0,103.7-46.6,103.7-104.5c0-56.9-46.7-103.1-104.3-103.2
		C302.6,522.4,256,569,256,625.8C255.9,683.6,302.3,730.2,359.9,730.1z M537.9,603.6c-12.3,0-22.4,10.1-22.6,22.4
		c-0.2,12.3,10.5,23,22.9,22.9c12.3-0.1,22.5-10.3,22.5-22.5C560.7,613.7,550.7,603.6,537.9,603.6z"/>
	<path class="st2" d="M711.9,554.9c10.1-0.2,16.6,4.9,17.1,13.3c0.4,8.4-5.8,14.3-15.6,14.9c-23.2,1.4-40.2,18.4-41.8,41.7
		c-0.7,9.9-6.6,16.1-14.9,15.6c-8.1-0.5-13.4-7.1-13.3-16.5C643.9,587.7,675.7,555.6,711.9,554.9z"/>
	<path class="st2" d="M287.5,622.5c3-37.2,34-67.4,70.2-67.7c9.5-0.1,15.8,5.2,16,13.4c0.3,8.4-5.6,14.1-14.9,14.7
		c-24,1.6-39.9,17.3-42,41.9c-0.6,7.3-3.5,12.7-11,14.8c-5.9,1.6-11.1-0.2-14.2-5.1C289.3,631.2,288.8,626.6,287.5,622.5z"/>
</g>
</svg>
