<?xml version="1.0" encoding="utf-8"?>
<!-- Generator: Adobe Illustrator 22.1.0, SVG Export Plug-In . SVG Version: 6.00 Build 0)  -->
<svg version="1.1" id="Layer_1" xmlns="http://www.w3.org/2000/svg" xmlns:xlink="http://www.w3.org/1999/xlink" x="0px" y="0px"
	 viewBox="0 0 1080 1080" style="enable-background:new 0 0 1080 1080;" xml:space="preserve">
<style type="text/css">
	.st0{fill:#86A81D;}
	.st1{fill:#FFFFFF;}
</style>
<circle class="st0" cx="540" cy="540" r="467.9"/>
<g>
	<g>
		<path class="st1" d="M718.4,459.7c-7-36.7-16.1-73.1-33-106.8c-10.9-21.7-23.5-42.2-44-56.4c-13.7-9.5-37.7-13.9-55-0.6
			c-15.9,12.2-24.8,28.4-31.8,46.2c-13.2,33.5-16.9,69-17.5,104.4c-0.5,27.8,2.3,55.8,5.1,83.6c4.2,41.3,13.3,81.6,29.1,120.1
			c11.1,26.9,24.2,52.7,47.8,71c26.2,20.3,51.5,16.2,72.2-8.6c17.4-20.8,24.3-46.4,29.4-72.6c7.4-37.8,8.3-75.7,6.3-114
			C724.1,503.8,722.5,481.5,718.4,459.7z M671.2,649.8c-2.8,8.1-7.7,15.7-12.9,22.5c-4.5,5.9-10.3,6.7-17.2,1.4
			c-17.5-13.3-25.7-32.4-33.1-51.9c-15.4-40.5-22.8-82.7-26-125.9c-2.8-37.6-1.6-74.7,7.3-111.2c2.8-11.4,8.2-22.7,14.7-32.5
			c8.6-12.9,11.7-11.9,23.5-1.7c15.7,13.6,24.6,32.2,30.4,51.5c8.6,28.8,16.2,58,21.6,87.5c4,21.5,3.8,43.8,5.4,65.7
			C684.3,587.5,681.8,619.3,671.2,649.8z"/>
	</g>
	<g>
		<path class="st1" d="M493.1,411.1c-0.3,6-0.5,12.2-0.6,18.6c-0.7,37.1,3.1,74.5,6.5,107.5c3.5,34.7,9.7,68,18.5,99.4
			c-21-9.6-43.8-15.5-68.7-18c-7.6-0.7-15.4-1.1-23.6-1.1c-25.2,0-50.2,3.6-72.4,6.7c-2.5,0.4-4.9,0.5-7.2,0.5
			c-14.2,0-24.9-6.9-34.7-22.5c-15.7-25-21.9-54.4-18.3-87.2c2.8-25.6,9.8-40.8,23.5-50.7c4.9-3.5,11.4-4.3,21.7-5.1
			c2.4-0.2,5-0.4,7.6-0.7c3.5-0.4,6.9-0.8,10.4-1.1c33.5-3.6,68.2-7.3,101.4-23.7C469.8,427.3,481.8,419.8,493.1,411.1 M510.3,367.4
			c-17.6,19.9-37.9,36.3-62.1,48.3c-33.2,16.4-69.3,18.9-105.1,22.9c-13.3,1.5-27.1,1.1-38.8,9.6c-22,16-28.9,40-31.6,64.7
			c-3.9,35.2,2,69.3,21.2,100c11.9,19,28.1,31.9,51.6,31.9c3.2,0,6.6-0.2,10-0.7c23-3.3,46.1-6.5,69.6-6.5c7.2,0,14.4,0.3,21.6,1
			c33.9,3.3,64.3,13.8,91.9,33.4c1.1,0.8,2.2,1.1,3.3,1.1c3.7,0,6.9-3.7,5.5-7.7c-15-42-24.1-85.6-28.6-130
			c-3.6-34.9-7-70.1-6.4-105.1c0.4-20,1.5-39.9,4.1-59.7C510.7,367.6,516.2,370.1,510.3,367.4L510.3,367.4z"/>
	</g>
	<g>
		<path class="st1" d="M418.7,683c0.8,0.6,2.4,2.2,4.3,5.3c5.4,8.8,10.4,17.6,14.9,26.3c5.9,11.3,17.2,27.6,46.8,38.7
			c3.7,1.4,7.8,7.1,9.4,12.2c-1.2,0.7-2.5,1.2-3.5,1.3c-3.9,0.5-7.9,0.9-11.8,1.4c-15.6,1.8-31.7,3.8-47.7,6.9
			c-2.1,0.4-4.1,0.6-5.8,0.6c-4.5,0-8.8-0.8-13.1-10.3c-5.1-11.3-9-23.4-13.2-36.2c-1.9-5.9-3.9-12-6-18c-2.9-8.4-5.9-16.7-8.9-25.3
			C395.9,684.7,407.3,683.6,418.7,683 M419.4,663c-0.2,0-0.5,0-0.7,0c-20.5,0.9-40.9,3.8-61.9,6c6.2,17.4,11.8,33.2,17.3,49
			c6.5,18.7,11.8,37.9,19.9,55.8c6.1,13.5,15.9,22.1,31.4,22.1c3,0,6.2-0.3,9.6-1c19.2-3.7,38.7-5.7,58.1-8.1
			c9.8-1.2,21.4-9.5,21.7-16.3c0.5-13.7-9.6-30.8-23-35.9c-15.5-5.8-28.2-14.2-36.1-29.3c-4.9-9.3-10.1-18.5-15.6-27.5
			C435.2,670.1,428.4,663,419.4,663L419.4,663z"/>
	</g>
	<path class="st1" d="M847.9,468.1c-20.4,3.7-40.8,7.2-61.3,10.4c-9.4,1.5-15.8,7.7-15.4,16.7c0.3,7.4,7.2,13.2,16.5,12.8
		c22.4-0.9,44.9-2.3,67.3-3.4c12.9-0.7,16.9-4.9,16.8-18C873.4,470.1,862.4,465.5,847.9,468.1z"/>
	<path class="st1" d="M846.6,617.4c-22.2-3.5-44.5-6.6-66.8-10c-11.1-1.7-17.7,1.2-19.4,9c-2.3,10.7,1.8,16.1,13.6,19.3
		c21.7,5.8,43.4,11.7,64.9,18.2c5.7,1.7,10.6,1.7,13.7-2.9c3.6-5.5,5.7-12,8.4-18C859.7,623.3,854.6,618.7,846.6,617.4z"/>
	<path class="st1" d="M824.6,333.1c-3.8-8.5-12.6-11.9-21.1-7.4c-21.3,11.2-42.4,22.7-63.6,34c-6.7,3.6-8.4,9.8-6.7,16.2
		c1.7,6.4,6.2,11,14,10.8c3.2-0.8,6.5-1.2,9.5-2.4c20.7-8,41.4-16,62-24.2C828.9,356.1,830.8,347,824.6,333.1z"/>
	<path class="st1" d="M613.8,464.8c-5.9-1.6-8.7-0.3-8.3,6.1c0.6,9.3,0.6,18.7,1.6,27.9c2.3,20.6,5.1,41,7.8,62.5
		c11.9-3,19.8-8.2,25.4-17.1c8.3-13.1,8.1-26.8,5.8-41.5C643.4,484.5,631.5,469.7,613.8,464.8z"/>
</g>
</svg>
