<?xml version="1.0" encoding="utf-8"?>
<!-- Generator: Adobe Illustrator 22.1.0, SVG Export Plug-In . SVG Version: 6.00 Build 0)  -->
<svg version="1.1" id="Layer_1" xmlns="http://www.w3.org/2000/svg" xmlns:xlink="http://www.w3.org/1999/xlink" x="0px" y="0px"
	 viewBox="0 0 1080 1080" style="enable-background:new 0 0 1080 1080;" xml:space="preserve">
<style type="text/css">
	.st0{fill:#7F51D7;}
	.st1{fill:#FFFFFF;}
</style>
<circle class="st0" cx="540" cy="540" r="467.9"/>
<g>
	<path class="st1" d="M291.1,418.6h440.4v296.1c0,5.9,4.8,10.8,10.8,10.8c5.9,0,10.8-4.8,10.8-10.8V418.6h23.7
		c5.9,0,10.8-4.8,10.8-10.8s-4.8-10.8-10.8-10.8h-23.7v-19.4c0-5.9-4.8-10.8-10.8-10.8c-5.9,0-10.8,4.8-10.8,10.8V397H291.1
		c-5.9,0-10.8,4.8-10.8,10.8S285.2,418.6,291.1,418.6z"/>
	<path class="st1" d="M813.4,328.1H254.5c-5.9,0-10.8,4.8-10.8,10.8v169.7l-32.9-19.2c-3.9-2.3-8.7-1.9-12.2,0.9
		c-3.5,2.8-4.9,7.5-3.5,11.7l48.6,149.1v93.7c0,5.9,4.8,10.8,10.8,10.8h23.3l22.5,69c1.5,4.5,5.7,7.4,10.2,7.4
		c1.1,0,2.2-0.2,3.3-0.5l233-75.9h266.5c5.9,0,10.8-4.8,10.8-10.8V338.9C824.1,332.9,819.3,328.1,813.4,328.1z M317.4,807.7
		l-17-52.1l-7-21.5l-28.1-86.4l-21.5-66.1l-19.3-59.4l19.3,11.3l21.5,12.6l306.3,178.8l-28.1,9.2l-66.1,21.5L317.4,807.7z
		 M802.6,734H606.4c1.1-1.5,1.8-3.3,2-5.2c0.5-4.2-1.6-8.3-5.3-10.4L265.3,521.1V349.6h537.3V734z"/>
	<path class="st1" d="M451.3,705.8L333,636.7c-3.9-2.3-8.7-1.9-12.2,0.9c-3.5,2.8-4.9,7.5-3.5,11.7l31.7,97.3c0.9,2.7,2.8,5,5.4,6.3
		c1.5,0.8,3.2,1.2,4.9,1.2c1.1,0,2.2-0.2,3.3-0.5l86.6-28.2c4-1.3,6.9-4.9,7.4-9.1C457,712,455,707.9,451.3,705.8z M366.2,729.7
		l-19.6-60.1l73.1,42.7L366.2,729.7z"/>
	<path class="st1" d="M715.4,675c-2.4-7.4-6.3-14.1-11.4-20L587.3,521c1.5-3,2.3-6.3,2.6-9.7c0.5-7-1.8-13.8-6.4-19.1L534.6,436
		c-4.6-5.3-11-8.5-18.1-9c-4.3-0.3-8.5,0.4-12.4,2.1c-2.3-1-4.8-1.6-7.4-1.8c-6.2-0.4-12.2,1.6-16.9,5.7l-19.4,16.9
		c-9.7,8.4-10.7,23.1-2.3,32.8l191.3,219.7c5.1,5.9,11.3,10.6,18.3,14l23.4,11.4c3.3,1.6,6.8,2.4,10.2,2.4c5.5,0,10.9-2,15.3-5.7
		c7.1-6.1,9.7-15.9,6.8-24.8L715.4,675z M702.5,708.3c-0.9,0.7-1.6,0.4-1.9,0.2l-23.4-11.4c-4.4-2.2-8.3-5.1-11.5-8.8L474.4,468.6
		c-0.4-0.4-0.4-0.9-0.4-1.3c0-0.3,0.1-0.8,0.6-1.2l19.4-16.9c0.4-0.3,0.8-0.4,1.1-0.4c0,0,0.1,0,0.1,0c0.3,0,0.7,0.1,1.1,0.5
		c0,0,0,0,0,0l0.2,0.2l68.8,79c0,0,0,0,0,0l122.4,140.6c3.2,3.7,5.6,7.9,7.1,12.6l8.1,24.7C703.1,706.8,703.3,707.5,702.5,708.3z"/>
</g>
</svg>
