<?xml version="1.0" encoding="utf-8"?>
<!-- Generator: Adobe Illustrator 22.1.0, SVG Export Plug-In . SVG Version: 6.00 Build 0)  -->
<svg version="1.1" id="Layer_1" xmlns="http://www.w3.org/2000/svg" xmlns:xlink="http://www.w3.org/1999/xlink" x="0px" y="0px"
	 viewBox="0 0 1080 1080" style="enable-background:new 0 0 1080 1080;" xml:space="preserve">
<style type="text/css">
	.st0{fill:#7F51D7;}
	.st1{fill:#FFFFFF;}
</style>
<circle class="st0" cx="540" cy="540" r="467.9"/>
<path class="st1" d="M227.3,759.7c54.2-90,108.4-179.9,162.6-269.9c9.9-16.4,19.4-33,29.6-49.2c9.9-15.6,25.4-15.7,35.2-0.1
	c11.1,17.6,21.5,35.7,33,54.8c22.8-36.6,44.7-71.6,66.2-106.9c2.3-3.8,2.8-9.3,2.8-14c0.2-38.4,0.1-76.7,0.1-115.1
	c0-18.8,6-24.9,24.7-24.9c36.6-0.1,73.2,0.1,109.8-0.1c9.4-0.1,18.3,0.7,22.5,10.6c4.2,9.9,0.3,18-6.7,25.4
	c-8.3,8.7-16.1,17.9-24.8,27.7c8.9,10.2,18.6,19.4,25.9,30.4c4.1,6.3,7.6,16.8,4.9,22.6c-2.6,5.8-13,10.8-20.2,11.1
	c-27.2,1.3-54.4,0.5-81.6,0.5c-4.8,0-9.7,0-18.4,0c2.7,10.9,2.8,21.1,7.4,28.6C676.1,514,752.4,636.5,828.7,759
	c0.2,0.3,0.8,0.5,1.1,0.7c0,3.6,0,7.1,0,10.7c-4.8,10.5-12.7,14.2-24.4,14.2c-184.5-0.3-368.9-0.3-553.4,0
	c-11.7,0-19.7-3.6-24.6-14.1C227.3,766.8,227.3,763.2,227.3,759.7z M377,745.4c133.5,0,265.1,0,398.4,0
	c-32.1-51.6-63.2-101.7-93.2-149.9c-15.6,10.1-29.4,21.7-45.2,28.7c-23.5,10.4-47.8,4.4-72-1.4c-23.6-5.6-47.7-11.5-71.8-12.2
	c-13.7-0.4-33.2,5.4-40.4,15.5C425.6,663.9,402.4,704.6,377,745.4z M485.1,571.5c9.6,0,16.8-1.2,23.6,0.2
	c26.9,5.4,53.8,11.5,80.5,17.7c26.1,6,48.4-2.4,63-23.7c4.3-6.3,4.9-11.3,0.4-18c-11.1-16.7-21.3-33.9-31.9-50.9
	c-14.5-23.2-29.1-46.4-44.6-71.2C545.6,474.6,516,522,485.1,571.5z M437.1,485.2c-20.9,34.9-40.9,68-60.4,101.3
	c-1.6,2.7-1.7,8.7,0.1,10.6c7.1,7.6,14.9,14.7,23.2,21c5.7,4.4,10.3,1.8,14-4.3c15.5-25.5,31.6-50.6,46.9-76.1
	c1.8-3,2.1-8.6,0.5-11.6C454.2,512.8,446.1,500.1,437.1,485.2z M280.4,746.5c9,0,15.7-1,22,0.2c21.8,3.9,34.8-5,44.8-24.6
	c11.8-23,26.8-44.3,39.7-65.2c-13-9.4-24.6-17.8-36.8-26.6C327.5,667.9,304.7,705.9,280.4,746.5z M652,323.5
	c-17.5-24.7-17.5-24.7-0.7-50.4c-18.7,0-36.9,0-55.7,0c0,17.1,0,33.4,0,50.4C614.5,323.5,632.6,323.5,652,323.5z"/>
</svg>
