<?xml version="1.0" encoding="utf-8"?>
<!-- Generator: Adobe Illustrator 22.1.0, SVG Export Plug-In . SVG Version: 6.00 Build 0)  -->
<svg version="1.1" id="Layer_1" xmlns="http://www.w3.org/2000/svg" xmlns:xlink="http://www.w3.org/1999/xlink" x="0px" y="0px"
	 viewBox="0 0 1080 1080" style="enable-background:new 0 0 1080 1080;" xml:space="preserve">
<style type="text/css">
	.st0{fill:#0CAFAA;}
	.st1{fill:#FFFFFF;}
</style>
<circle class="st0" cx="540" cy="540" r="467.9"/>
<g>
	<path class="st1" d="M869.6,510.8c-25.2-23.4-52.3-44.6-82.6-60.8c-13.8-7.4-22.1-15.3-18.4-31.6c0.2-0.8,0-1.8,0-2.7
		c-2.3-65.9-56.9-120.1-122.6-120.6c-76-0.6-152-0.6-228,0.1c-36.8,0.3-67.8,15.5-92,43.3c-22.9,26.3-32.2,57.5-30.6,92
		c0.3,6.5-1.7,9.9-7.5,13c-33.8,18.3-64.8,40.8-93.1,66.9c-8.5,7.8-8.9,9.8-4,20.4c36.2,78,72.4,156,108.6,234
		c5.5,11.9,9.8,13.4,21.5,7.4c75.6-38.5,155.9-53.5,240.2-46.4c63.4,5.3,123.6,22.7,180.8,50.3c11.5,5.5,15.5,4.1,20.9-7.6
		c28.1-60.5,56.1-121.1,84.2-181.6c9.6-20.7,19.5-41.2,29.3-61.8c0-2.2,0-4.5,0-6.7C874.1,515.7,872,513.1,869.6,510.8z
		 M354.4,340.3c18.8-15.9,40.8-23.9,65.5-24c75.5-0.1,151.1-0.4,226.6,0.1c58.1,0.4,106,54,100.3,111.1
		c-143.2-62.5-286.4-62.4-430.2,0.2C315.4,392.3,327.5,363,354.4,340.3z M746,753.7c-142.7-63.3-285.6-71.6-429.7-3.7
		c-2.5-5.2-4.9-10.3-7.8-16.4c149.1-72.4,296.7-64.9,445.1,3.7C750.7,743.4,748.4,748.4,746,753.7z M762.5,718.3
		c-73.3-35.4-150-55.7-231.2-57.1c-81.4-1.5-158.6,16.3-231.6,53.4c-10.3-22.2-20.4-43.9-30.5-65.6c-18.4-39.6-36.6-79.2-55.2-118.7
		c-2.2-4.7-1.9-7.2,2.1-10.6c62.8-54.9,135.1-90.7,216.7-107.2c94.8-19.2,187.6-11.6,277.9,23.5c49.1,19.1,93.5,46.1,133.4,80.5
		c2.7,2.3,5.3,4.8,8.6,7.7C822.7,588.6,792.7,653,762.5,718.3z"/>
	<path class="st1" d="M613.3,499.4c-16.1,0-32.2,0-49.1,0c0-18,0.1-35,0-52.1c0-7.9-3.8-12.3-11-12.4c-14.1-0.2-28.2-0.2-42.4,0
		c-6.8,0.1-10.6,4.2-11,11c-0.1,2.5,0,4.9,0,7.4c0,15.2,0,30.3,0,46.1c-3.4,0-6,0-8.7,0c-14.6,0-29.1-0.1-43.7,0
		c-8,0.1-12.1,4.1-12.2,12c-0.1,13.4-0.1,26.9,0,40.3c0.1,8,4.1,12,12.1,12c15,0.1,30,0,45,0c2.4,0,4.7,0,7.4,0
		c0,17.8,0,34.6,0,51.4c0,9.3,3.8,13.1,13,13.2c11.4,0.1,22.9,0,34.3,0c14.8,0,17.2-2.5,17.2-17.1c0-15.6,0-31.2,0-47.5
		c17.3,0,33.8,0,50.3,0c10.6,0,14.2-3.5,14.2-14c0-11.7,0-23.3,0-35C628.7,502.5,625.5,499.4,613.3,499.4z"/>
</g>
</svg>
