<?xml version="1.0" encoding="utf-8"?>
<!-- Generator: Adobe Illustrator 22.1.0, SVG Export Plug-In . SVG Version: 6.00 Build 0)  -->
<svg version="1.1" id="Layer_1" xmlns="http://www.w3.org/2000/svg" xmlns:xlink="http://www.w3.org/1999/xlink" x="0px" y="0px"
	 viewBox="0 0 1080 1080" style="enable-background:new 0 0 1080 1080;" xml:space="preserve">
<style type="text/css">
	.st0{fill:#7F51D7;}
	.st1{fill:#FFFFFF;}
</style>
<circle class="st0" cx="540" cy="540" r="467.9"/>
<g>
	<path class="st1" d="M393.5,440.5c-16.1-0.2-33.7,2.6-51,8.2c-72.6,23.2-117.1,93.5-105,167.6c9.3,56.9,41,98.6,90.7,127
		c5.2,3,12.9,4.9,14.9,9.4c2.2,5-0.8,12.3-1.5,18.6c-1.5,12.2-3.4,24.3-4.4,36.5c-0.6,7.7,3.8,10.3,10.9,7.3
		c1.6-0.7,3.1-1.6,4.7-2.4c23.2-12.8,46.5-25.4,69.6-38.5c10.6-6,21.5-10.1,33.5-12.6c83-17.4,135.1-98.3,117-181.1
		C554.9,499.4,480.1,440.4,393.5,440.5z M445,662.8c-11.7-12.1-24.6-25.5-37.7-39c-14,14.3-26.9,27.4-39,39.7
		c-9-8.9-17.2-16.9-25.8-25.4c12.3-12,25.6-24.9,39.2-38.2c-14.2-13.9-27.2-26.8-40.4-39.8c9-8.9,17-16.9,25.4-25.3
		c12.6,12.8,25.6,26,39,39.6c13.7-13.9,26.6-27,39.1-39.6c8.6,8.8,16.6,17,24.7,25.4c-12,11.9-25.2,25-38.6,38.3
		c14,13.7,27.1,26.5,39.5,38.7C461.7,646.1,453.6,654.2,445,662.8z"/>
	<path class="st1" d="M761.7,320.5c-42.8-28.8-90.6-37.1-140.8-26.7c-74.5,15.5-124.7,60.2-152.3,131.7c6.2,2.1,11.6,4,16.9,5.9
		c43.6,14.9,77.8,41.8,101.1,81.6c23.3,39.7,30,82.3,17.4,127.2c-0.9,3-2.4,5.8,1.8,8.4c27.6,16.7,54.9,33.7,82.4,50.4
		c8.5,5.1,17.6,5.8,26.2,0.3c8.9-5.6,11.8-14.4,11.1-24.4c-0.8-11.6-1.6-23.2-3.1-34.7c-0.8-6.4,1.2-9.4,7-12.5
		c66-35.1,105.1-88.8,107.3-164.7C838.5,402.2,811.9,354.3,761.7,320.5z M788,523.5c-19.7,39.8-51.4,66.4-92.8,81.9
		c-9.4,3.5-9.3,3.5-8.4,13.7c1.1,13.1,2.1,26.2,3.2,40.7c-6.2-3.8-11.4-6.9-16.5-10c-9.2-5.6-18.4-11-27.3-17
		c-2-1.4-4.1-4.9-3.8-7.1C656.9,534,601,444.8,519.2,407.9c-1-0.4-1.9-1-3.6-2c14.9-25.4,34.7-45.2,60-59.2
		c47.3-26.3,96.6-31.3,146.5-9.3C794.9,369.6,823.6,451.8,788,523.5z"/>
	<path class="st1" d="M744.9,390.9c-3.8,0.7-8,2.4-10.9,5c-8.9,8.1-17.2,16.9-25.7,25.4c-12.7,12.7-25.3,25.5-38.4,38.7
		c-8.7-6.2-16.6-11.7-24.4-17.3c-6.4-4.5-14.3-4-19.1,1.3c-4.4,4.8-3.9,10.6,1.8,16.9c13.1,14.8,26.2,29.5,39.3,44.2
		c1,1.1,2.1,2,3.5,3.2c13.2-15.5,26.2-30.6,39.1-45.8c14.8-17.3,29.6-34.7,44.5-52c3.4-4,4.9-8.4,2.3-13.3
		C754.4,392.6,750.1,390,744.9,390.9z"/>
</g>
</svg>
