<?xml version="1.0" encoding="utf-8"?>
<!-- Generator: Adobe Illustrator 22.1.0, SVG Export Plug-In . SVG Version: 6.00 Build 0)  -->
<svg version="1.1" id="Layer_1" xmlns="http://www.w3.org/2000/svg" xmlns:xlink="http://www.w3.org/1999/xlink" x="0px" y="0px"
	 viewBox="0 0 1080 1080" style="enable-background:new 0 0 1080 1080;" xml:space="preserve">
<style type="text/css">
	.st0{fill:#0CAFAA;}
	.st1{fill:#FFFFFF;}
</style>
<circle class="st0" cx="540" cy="540" r="467.9"/>
<path class="st1" d="M861.5,621.5c-2.6-15.9-9-30.2-19.2-42.7c-16.8-20.7-38.5-32.5-65-35c-18-1.7-35.1,1.6-51,10.3
	c-29.7,16.2-46.8,41.2-50.2,75c-2.3,22.8,3.8,43.7,17.2,62.3c12,16.5,27.8,27.9,47.2,34.3c0.9,0.3,1.7,0.4,1.4,1.9
	c-3.3,14.3-8,28-15.8,40.5c-9.3,14.9-21,27.4-36.2,36.5c-18,10.8-37.7,16-58.3,18.2c-15.8,1.7-31.7,1.8-47.6,0.4
	c-11.6-1-23-3.1-34.1-6.6c-27.1-8.5-47.9-25-62.1-49.7c-11.8-20.6-18.5-42.9-21.1-66.5c-0.1-0.7,0.2-1.7,0.7-2.2
	c11.2-14.1,18.2-30.1,21.5-47.8c0.2-0.8,0.8-1.9,1.4-2.2c17.3-9.3,31.7-22,44.3-36.9c14.5-17.1,26.2-36,36.4-55.9
	c12.4-24.4,22.3-49.9,30.7-75.9c11.6-36,20.9-72.5,26.2-110c0.9-6.4,1.3-12.9,0.4-19.4c-1.4-9.5-5.9-17.5-11.8-24.9
	c-11.5-14.4-26-24.9-42.1-33.5c-1.2-0.6-2.3-1.7-2.9-2.8c-8.9-15.9-27-24.4-44.6-20.7c-28.7,6-42.9,37.8-28.2,63.2
	c12.1,20.7,39.2,27.1,59.1,13.7c2.1-1.4,4-3,6.3-4.8c4.4,3.5,8.9,7.1,13.2,10.7c1.4,1.1,2.5,2.6,3.4,4.1c0.6,1.1,1,2.7,0.8,4
	c-2.2,12.8-4.1,25.6-6.9,38.3c-8.4,38.8-19.4,76.7-35,113.2c-9.3,21.6-19.8,42.6-33.8,61.7c-8.7,11.9-18.5,22.8-30.9,31
	c-16.5,10.9-34.2,13.7-53.1,7.1c-11.1-3.9-20.3-11-28.6-19.2c-14.4-14.2-25.3-31-34.8-48.8c-11.8-22-21.3-45.1-29.3-68.8
	c-8.4-24.9-15.4-50.1-20.8-75.8c-2.7-13-4.7-26.1-7-39.2c-0.1-0.7-0.1-1.6,0.3-2.1c4.8-6.5,10.8-11.7,17.6-15.9
	c0.9,0.7,1.6,1.4,2.4,2c9.6,7.7,20.4,11,32.6,9.1c23.8-3.6,39.7-26.4,35.1-50.1c-3.4-17.6-17.7-31.1-35.9-33.8
	c-17.2-2.6-34.7,6.5-42.9,22.2c-0.5,1-1.4,1.8-2.3,2.4c-2.9,1.9-6,3.5-8.9,5.4c-13,8.4-25.3,17.5-34.7,30
	c-6.9,9.2-11.1,19.3-10.4,30.9c0.4,6.7,0.9,13.5,2.1,20.1c3.1,16,6.3,32,10.1,47.8c8.6,36.2,19.7,71.6,34.6,105.8
	c10.9,25.1,23.8,49.1,40.6,70.8c14.2,18.4,30.6,34.3,51.3,45.4c0.5,0.3,0.9,1,1.1,1.6c1.2,4.8,2.1,9.8,3.6,14.6
	c4.5,14,11,26.8,21.1,37.7c0.7,0.7,0.9,1.9,1.1,3c1.6,8.8,2.8,17.8,4.8,26.5c7,31.1,20.1,59.2,41.7,83c14,15.5,30.4,27.8,49.1,37
	c22.2,10.9,45.8,16.6,70.3,18.6c20.3,1.6,40.5,0.8,60.5-2.6c23.8-4,46.4-11.7,67.1-24.3c25.9-15.8,45.9-37,59.6-64.1
	c7.9-15.5,13.1-31.9,16-49c0.3-1.5,0.5-2.6,2.4-3.1c22.7-5.7,41-18.1,54.5-37.2C860.5,669.2,865.5,646.3,861.5,621.5z"/>
</svg>
