<?xml version="1.0" encoding="utf-8"?>
<!-- Generator: Adobe Illustrator 22.1.0, SVG Export Plug-In . SVG Version: 6.00 Build 0)  -->
<svg version="1.1" id="Layer_1" xmlns="http://www.w3.org/2000/svg" xmlns:xlink="http://www.w3.org/1999/xlink" x="0px" y="0px"
	 viewBox="0 0 1080 1080" style="enable-background:new 0 0 1080 1080;" xml:space="preserve">
<style type="text/css">
	.st0{fill:#FFB321;}
	.st1{fill:#FFFFFF;}
	.st2{fill:none;stroke:#FFFFFF;stroke-width:23.2232;stroke-linecap:round;stroke-linejoin:round;stroke-miterlimit:10;}
</style>
<circle class="st0" cx="540" cy="540" r="467.9"/>
<g>
	<path class="st1" d="M665.5,254.1c27.5,0,53.4,10.7,72.9,30.2c40.2,40.2,40.2,105.6,0,145.8c-19.5,19.5-45.3,30.2-72.9,30.2
		S612,449.5,592.6,430c-40.2-40.2-40.2-105.6,0-145.8C612,264.8,637.9,254.1,665.5,254.1 M665.5,234.1c-31.5,0-63,12-87,36
		c-48.1,48.1-48.1,126,0,174c24,24,55.5,36,87,36c31.5,0,63-12,87-36c48.1-48.1,48.1-126,0-174C728.5,246.1,697,234.1,665.5,234.1
		L665.5,234.1z"/>
</g>
<g>
	<path class="st1" d="M519.5,420.8c7.9,18.1,19.1,34.7,33.4,48.9c14.3,14.3,30.8,25.5,48.9,33.4l-203,175.8
		c-5.3,4.3-11.4,6.7-17.5,6.7c-3.4,0-8.3-0.8-12.1-4.6l-27.6-27.6c-6.9-6.9-5.9-19.8,2.1-29.6L519.5,420.8 M528.3,380.1L328.5,610.8
		c-14.9,17.9-15.3,42.3-1,56.6l27.6,27.6c7,7,16.4,10.5,26.2,10.5c10.4,0,21.2-3.8,30.4-11.5l230.7-199.7
		c-27.6-4.6-54.1-17.5-75.4-38.8S532.9,407.8,528.3,380.1L528.3,380.1z"/>
</g>
<path class="st2" d="M321.8,700.7c-30.8,30.8-30.8,80.7,0,111.5l0,0c30.8,30.8,80.7,30.8,111.5,0l83-83c30.8-30.8,80.7-30.8,111.5,0
	l2.6,2.6c30.8,30.8,30.8,80.7,0,111.5l-57,57"/>
<polygon class="st1" points="336,248.5 319,343.9 336,439.4 353,343.9 "/>
<polygon class="st1" points="431.5,343.9 336,326.9 240.6,343.9 336,360.9 "/>
<polygon class="st1" points="801,585.9 784,681.4 801,776.8 818,681.4 "/>
<polygon class="st1" points="896.5,681.4 801,664.4 705.5,681.4 801,698.4 "/>
</svg>
