<?xml version="1.0" encoding="utf-8"?>
<!-- Generator: Adobe Illustrator 22.1.0, SVG Export Plug-In . SVG Version: 6.00 Build 0)  -->
<svg version="1.1" id="Layer_1" xmlns="http://www.w3.org/2000/svg" xmlns:xlink="http://www.w3.org/1999/xlink" x="0px" y="0px"
	 viewBox="0 0 1080 1080" style="enable-background:new 0 0 1080 1080;" xml:space="preserve">
<style type="text/css">
	.st0{fill:#FFB321;}
	.st1{fill:#FFFFFF;}
</style>
<circle class="st0" cx="540" cy="540" r="467.9"/>
<g>
	<circle class="st1" cx="379.8" cy="588.6" r="12.2"/>
	
		<ellipse transform="matrix(0.2547 -0.967 0.967 0.2547 -307.0911 885.5245)" class="st1" cx="420.9" cy="642" rx="12.2" ry="12.2"/>
	<circle class="st1" cx="332.8" cy="619.1" r="12.2"/>
	<circle class="st1" cx="373.9" cy="672.5" r="12.2"/>
	
		<ellipse transform="matrix(0.2547 -0.967 0.967 0.2547 117.5452 968.7412)" class="st1" cx="687.2" cy="408.1" rx="12.2" ry="12.2"/>
	<circle class="st1" cx="728.3" cy="461.5" r="12.2"/>
	<circle class="st1" cx="640.2" cy="438.6" r="12.2"/>
	<circle class="st1" cx="681.3" cy="492" r="12.2"/>
	<path class="st1" d="M844.8,309.4c-50.3-51.8-84.4-42.8-124.4-9.7c-29.4,24.3-61.4,46-94.1,65.8c-65.2,39.7-131.3,78-197.7,115.5
		c-65.5,36.9-127,81.2-199.1,105.9c-20.1,6.9-32,24-37.9,44.4c-15.6,53.9,21,114.7,79.4,133.5c35.1,11.3,69.3,11.6,102.2-5.4
		l11.4-6.6c1,2.1,2.2,4.2,3.5,6.1l15.6,26.8c1.1,2.2,2.3,4.4,3.8,6.4c5.4,7.3,13.3,12.5,22.6,14.9c3.5,0.9,7.2,1.4,10.9,1.6
		c13,0.4,26.4-4.1,37.7-12.5c11.4-8.4,19.5-19.9,23-32.4c3.6-13,1.6-26.1-5.4-36.1l-17.1-29.3l222.6-128.3c0.8,1.6,1.7,3.1,2.7,4.5
		l15.6,26.8c1.1,2.2,2.3,4.4,3.8,6.4c5.4,7.3,13.3,12.5,22.6,14.9c3.5,0.9,7.2,1.4,10.9,1.6c13,0.4,26.4-4.1,37.7-12.5
		c11.4-8.4,19.5-19.9,23-32.4c3.6-13,1.6-26.1-5.4-36.1l-16.4-28.2c17.9-16,36.3-29.9,51.2-46.7
		C890.1,420.3,889.4,355.4,844.8,309.4z M476.8,740.9c4.2,5.7,3.2,12.8,2.1,16.5c-2,7.3-7.2,14.5-14.2,19.7
		c-13.4,9.9-30.6,10.5-37.8,1.3c-0.1-0.1-0.2-0.2-0.3-0.4c-0.8-1.1-1.4-2.2-1.8-3.3c-2-4.9-1.1-10.2-0.3-13.2
		c2-7.3,7.2-14.5,14.2-19.7c9.3-6.9,20.3-9.2,28.7-7.1C471.2,735.8,474.5,737.8,476.8,740.9z M793.2,556.4
		c4.2,5.7,3.2,12.8,2.1,16.5c-2,7.3-7.2,14.5-14.2,19.7c-7,5.2-15.4,8.1-23,7.8c-3.7-0.1-10.6-1.1-14.8-6.5l-2.1-3.6
		c-4-9.7,1.7-23.9,13.9-32.9c9.3-6.9,20.3-9.2,28.7-7.1C787.7,551.3,791,553.3,793.2,556.4z M827.9,450.8
		c-15.7,17.3-34.8,32.7-54.9,44.7c-0.3,0.2-0.6,0.4-0.9,0.5c-24.4,14.4-48.9,28.8-73.3,43.2c-80.4,47.2-161,94.1-241.6,141.1
		c-25,14.6-50,29.2-75,43.9c-5.2,3.1-10.4,6.1-15.6,9.2c-25,14.7-50.5,17.9-78,9.7c-31.8-9.2-56.4-27.1-69.4-58.6
		c-7.8-18.8-7.4-37.9,1.3-55.8c3.5-7.3,11.1-15.1,18.5-17.6c71.9-24,132.9-68.4,197.9-105.1c67.8-38.2,135.1-77.3,201.6-117.8
		c34.7-21.2,67.8-45.2,100.3-69.9c32.7-24.8,50.8-25.3,81.3,2.5C859.9,357.2,864.3,410.8,827.9,450.8z"/>
</g>
</svg>
