<?xml version="1.0" encoding="utf-8"?>
<!-- Generator: Adobe Illustrator 22.1.0, SVG Export Plug-In . SVG Version: 6.00 Build 0)  -->
<svg version="1.1" id="Layer_1" xmlns="http://www.w3.org/2000/svg" xmlns:xlink="http://www.w3.org/1999/xlink" x="0px" y="0px"
	 viewBox="0 0 1080 1080" style="enable-background:new 0 0 1080 1080;" xml:space="preserve">
<style type="text/css">
	.st0{fill:#0CAFAA;}
	.st1{fill:none;stroke:#FFFFFF;stroke-width:21;stroke-miterlimit:10;}
</style>
<circle class="st0" cx="540" cy="540" r="467.9"/>
<g>
	<circle class="st1" cx="301.8" cy="359.8" r="41.1"/>
	<circle class="st1" cx="771.9" cy="359.8" r="41.1"/>
	<g>
		<circle class="st1" cx="393.6" cy="565.7" r="29.3"/>
		<line class="st1" x1="393.6" y1="536.4" x2="393.6" y2="378.6"/>
	</g>
	<g>
		<circle class="st1" cx="458.5" cy="565.7" r="29.3"/>
		<line class="st1" x1="458.5" y1="536.4" x2="458.5" y2="378.6"/>
	</g>
	<g>
		<circle class="st1" cx="523.5" cy="565.7" r="29.3"/>
		<line class="st1" x1="523.5" y1="536.4" x2="523.5" y2="378.6"/>
	</g>
	<g>
		<circle class="st1" cx="588.4" cy="565.7" r="29.3"/>
		<line class="st1" x1="588.4" y1="536.4" x2="588.4" y2="378.6"/>
	</g>
	<g>
		<circle class="st1" cx="701.8" cy="565.4" r="29.3"/>
		<line class="st1" x1="692.3" y1="537.7" x2="638.1" y2="380.1"/>
	</g>
	<path class="st1" d="M805.6,789.9H268.6c-12,0-21.7-9.7-21.7-21.7v-0.3c0-12,9.7-21.7,21.7-21.7h536.9c12,0,21.7,9.7,21.7,21.7v0.3
		C827.3,780.2,817.6,789.9,805.6,789.9z"/>
	<line class="st1" x1="338.1" y1="340.4" x2="734.5" y2="340.4"/>
	<line class="st1" x1="340.2" y1="379.1" x2="736.6" y2="379.1"/>
	<line class="st1" x1="301.8" y1="400.9" x2="301.8" y2="744.6"/>
	<line class="st1" x1="771.9" y1="400.9" x2="771.9" y2="743.5"/>
</g>
</svg>
