<?xml version="1.0" encoding="utf-8"?>
<!-- Generator: Adobe Illustrator 22.1.0, SVG Export Plug-In . SVG Version: 6.00 Build 0)  -->
<svg version="1.1" id="Layer_1" xmlns="http://www.w3.org/2000/svg" xmlns:xlink="http://www.w3.org/1999/xlink" x="0px" y="0px"
	 viewBox="0 0 1080 1080" style="enable-background:new 0 0 1080 1080;" xml:space="preserve">
<style type="text/css">
	.st0{fill:#7F51D7;}
	.st1{fill:#FFFFFF;}
</style>
<circle class="st0" cx="540" cy="540" r="467.9"/>
<g>
	<path class="st1" d="M899.2,557.1c-0.3-7.1-3.5-12.9-9.1-17.4c-6.1-4.9-13.2-7.4-20.6-9.1c-24-5.7-48.3-8.9-72.8-11
		c-17.5-1.5-35-2.4-52.5-3.4c-30.9-1.7-61.7-0.3-92.1,5.2c-25.5,4.6-50.9,9.9-76.4,14.6c-10.4,1.9-21,3.4-31.5,4.3
		c-14.1,1.3-28-1.2-41.8-3.7c-24.4-4.6-48.8-9.7-73.3-14.1c-14.2-2.5-28.5-4.4-42.9-5.6c-13.9-1.2-27.9-1.1-42.7-1.6
		c-20.3,1.3-41.5,2.5-62.6,4.2c-20.7,1.6-41.2,4.1-61.5,8.3c-7.9,1.6-15.8,3.6-23.5,6.2c-7.1,2.4-12.9,7-15.7,14.5
		c-1.8,4.8-1.9,9.8-1.6,14.8c0.6,9.6,4.6,17,13.5,21.3c5.5,2.7,8.9,7.1,10.7,12.9c2.1,6.7,2.8,13.7,3,20.7
		c0.5,15.1,0.1,30.2,2.8,45.2c2.6,14.4,7,28.2,14.6,40.9c11.6,19.3,28.5,32.4,49,41.3c20.1,8.7,41.4,12.7,63.1,14.6
		c18,1.7,36.1,2.1,54.2,1c16.6-1,32.9-3.7,48.6-9.2c22.8-8.1,41.6-21.5,54.3-42.5c11-18.1,15.7-38.2,17.2-59
		c0.7-8.9,0.4-17.9,2.2-26.7c1.6-7.7,3-15.4,7-22.2c4.4-7.4,11-10.9,19.5-10.7c8.6,0.1,14.9,4.3,18.2,12.1
		c2.2,5.3,3.9,10.8,5.2,16.4c1.9,8,4.1,16,4,24.4c0,12.5,1.8,24.8,5,36.9c8.8,33.7,29,57.3,61.7,69.9c19.6,7.6,40.2,10.5,61.1,11.1
		c19.4,0.6,38.7-0.1,58-2.7c18.4-2.4,36.4-6.5,53.4-14.1c30.3-13.5,50.2-36,59-68c3.7-13.5,5.3-27.2,5.4-41.2
		c0.1-10.7,0-21.4,2.2-32c1.9-8.7,6-15.5,14.6-19.2c6.9-3,11.3-8.5,12.6-16C899.1,564.7,899.3,560.8,899.2,557.1z M472.3,651.1
		c-2.8,20.1-10.7,37.9-26.4,51.5c-10.8,9.3-23.4,15-37.2,18.4c-13.8,3.5-27.8,4.6-42,4.5c-16.9-0.2-33.7-1.3-50.2-4.9
		c-14.6-3.2-28.6-8-41-16.6c-17.1-11.7-27.3-28.1-31-48.2c-1.5-8.1-1.9-16.4-2.3-24.6c-0.5-9.6-0.8-19.3-0.7-28.9
		c0.1-6,0.6-12,1.6-17.9c1.8-10,7.8-17.1,16.5-22c9-5.1,18.9-7.4,28.9-9.1c22.5-3.8,45.2-3.9,74.9-3.9c7.6,0.3,22.1,0.7,36.7,1.7
		c14.4,1,28.6,3.1,42.2,8.4c16.8,6.6,26.3,19,29.1,36.6C474.4,614.3,474.9,632.7,472.3,651.1z M832.6,639.4
		c-0.2,9.2-1.9,18.3-4.8,27c-6.7,19.9-19.8,34.1-38.4,43.5c-13.8,7-28.5,10.7-43.6,12.8c-17.3,2.4-34.6,3.3-52,2.2
		c-15.8-0.9-31.1-3.8-45.6-10.7c-19.8-9.4-32.8-24.8-39.9-45.4c-6.2-18.1-7.3-36.8-6.5-55.8c0.3-8,1.2-15.9,3.2-23.6
		c4.4-16.8,15.5-27,31.5-32.4c10.2-3.4,20.7-5.2,31.4-6.4c17.3-2,34.7-2.1,52.1-2.1c16,0.7,32,1.2,48,2.3
		c13.1,0.9,26.1,2.9,38.5,7.7c5.9,2.2,11.3,5.2,15.9,9.5c6.3,6.1,9.3,13.8,10.3,22.3C834.4,606.8,832.9,623.1,832.6,639.4z"/>
	<path class="st1" d="M234.1,504.8c1.1-0.3,2.4-1.1,3-2c26.3-36.7,52.7-73.4,78.9-110.1c13.9-19.5,27.6-39.2,41.5-58.7
		c3.7-5.2,8.3-9.7,13.8-13.1c7.3-4.4,14.7-5.3,22.4-0.9c7.7,4.4,13.8,10.5,18.6,18c9.6,14.8,16.4,30.9,23.7,46.8c2,4.5,4.3,8.7,8,12
		c12.5,10.9,35.2,3.1,39.2-13.9c2-8.7,0.7-16.9-3.4-24.4c-3.9-7.2-8.5-14.1-13.2-21c-11-16.2-22.3-32.2-35.4-46.9
		c-8.9-10-19.1-18.1-31.9-22.7c-14.6-5.2-27.9-3.6-40.1,6c-7.3,5.7-12.9,13-18,20.7c-46.2,69.4-92.3,138.9-138.5,208.4
		c-2.5,3.8-4.9,7.6-7.6,11.7c7.5-2.2,14.4-4.4,21.5-6.3C222.5,507,228.4,506.1,234.1,504.8z"/>
	<path class="st1" d="M628.7,398.5c5.6-3.7,8.7-9.2,10.8-15.3c5.2-15,12-29.3,20.5-42.7c5.3-8.3,11.1-16.1,19.4-21.8
		c6.5-4.5,13.4-5.5,20.7-2.2c7.3,3.3,12.9,8.8,17.5,15.2c7.1,9.8,14,19.8,21.1,29.7c33.9,47.2,67.7,94.3,101.7,141.4
		c0.7,1,2,1.8,3.2,2.1c4,1,8.2,1.5,12.2,2.6c8.6,2.2,17.2,4.7,26.3,7.2c-0.6-1-0.9-1.6-1.3-2.1c-7.5-11.5-15-23-22.6-34.4
		c-40.5-60.8-80.9-121.7-121.4-182.5c-4.4-6.6-9.1-12.9-14.9-18.4c-9-8.4-19.4-13.3-32-12c-10.5,1.1-20.1,5.1-28.4,11.4
		c-6.5,4.9-12.3,10.9-17.7,16.9c-12.5,13.9-22.9,29.3-33.4,44.6c-4.8,6.9-9.8,13.6-13.3,21.4c-4.9,11-5.5,21.8,1.3,32.3
		C604.9,401.9,618.9,404.9,628.7,398.5z"/>
</g>
</svg>
