<?xml version="1.0" encoding="utf-8"?>
<!-- Generator: Adobe Illustrator 22.1.0, SVG Export Plug-In . SVG Version: 6.00 Build 0)  -->
<svg version="1.1" id="Layer_1" xmlns="http://www.w3.org/2000/svg" xmlns:xlink="http://www.w3.org/1999/xlink" x="0px" y="0px"
	 viewBox="0 0 1080 1080" style="enable-background:new 0 0 1080 1080;" xml:space="preserve">
<style type="text/css">
	.st0{fill:#0CAFAA;}
	.st1{fill:#FFFFFF;}
</style>
<circle class="st0" cx="540" cy="540" r="467.9"/>
<g>
	<g>
		<path class="st1" d="M488,585.5c1.5,17.9,2.5,35.8,4.7,53.6c0.6,4.7,3.7,10.5,7.5,13.1c9.6,6.6,21.2-1.4,21.1-13.7
			c0-16.5-0.4-33.1,0.3-49.5c0.4-10.4,1.8-21,8.4-32.1c2.2,6.1,4.6,10.5,5.3,15.1c2.3,13.7,4.2,27.6,5.7,41.4
			c1.2,10.3,7.7,16.3,17,14.9c7.4-1.1,11.2-7.2,12.1-16.4c1.6-17.8,3.4-35.6,6.1-53.2c0.9-5.7,5-10.9,7.6-16.3
			c1,0.1,1.9,0.3,2.9,0.4c1.5,5,4.1,9.9,4.4,14.9c1,17.8,1.5,35.7,1.6,53.6c0.1,10.8,5.8,17.7,15.5,17.1c7.6-0.5,13-5.9,13.3-15.2
			c0.5-15.1,1.1-30.3-0.2-45.4c-0.9-11.2-3.3-22.7-7.5-33.1c-10.2-25.1-37.8-28.2-54.5-6.7c-2.6,3.4-4.8,7.2-7.3,11.2
			c-11.7-12.6-24.6-14.9-39-6c-6.5-9.5-12.2-12.3-19.5-9.8c-7.4,2.5-10.1,8.6-9,20.3C485.9,557.6,486.9,571.6,488,585.5z"/>
		<path class="st1" d="M287.1,549.9c5.6,4.8,6.6,20.2,1.7,25.5c-5.9,6.6-5.4,14.8,0.8,21.2c2,2,3.5,5.3,3.7,8.1
			c1.2,16.5,1.8,33,2.8,49.5c0.6,10.2,8.2,15.9,18.2,13.8c3.2-0.6,6.4-1.4,9.5-2.1c19.1-4.2,38.2-8.5,57.2-12.7
			c6.2-1.4,10.5-4.8,11.8-11.3c1.2-6.1-0.4-11.9-5.9-14.4c-4.3-2-9.9-2.4-14.6-1.6c-15.9,3-31.7,6.9-48.5,10.7
			c-0.7-13.1-1.5-25.5-1.7-38c0-1.3,2.7-3.4,4.5-3.8c10.2-2.3,20.5-4,30.8-6.2c9.5-2,14.6-9.4,12.7-17.7c-1.9-8-9.3-12.2-18.5-10.4
			c-10.2,2-20.5,4-31.3,6.1c0-6.1,0-11.6,0-17.9c17.1-3.3,34-6.6,50.9-9.9c9.8-1.9,14.7-8.4,13.2-17.1c-1.4-8.1-8.4-12.7-18.1-10.9
			c-24.5,4.5-48.9,9.2-73.3,14.1c-5.7,1.1-9.6,4.8-10.8,10.6C281.1,541.1,282.6,546,287.1,549.9z"/>
		<path class="st1" d="M678,620.6c15.3-0.2,28.6-5.8,40-15.8c7.2-6.3,8.1-14.5,2.7-21c-5.3-6.3-13.6-6.3-21.2-1
			c-5.1,3.5-10.7,6.8-16.5,8.5c-9.9,2.9-16.3-1.2-18.8-11.3c-1.2-4.7-1.4-9.6-2.1-14.4c0.3,0,0.5,0,0.8-0.1c0-2.8-0.3-5.6,0-8.4
			c2.2-17.4,17.9-25.2,32.9-16.4c9.4,5.5,17.2,4.5,21.9-3.1c4.8-7.6,2-15.8-7.2-21.6c-29.1-18.1-65.8-3.6-74.3,29.6
			c-3.8,14.7-3.4,29.6,1.1,44.1C643.2,609.4,658.4,620.8,678,620.6z"/>
		<path class="st1" d="M750.4,477.9c4.7-4.7,9.7-7.7,17.5-5.9c-2.6,4.1-4.6,8.1-7.4,11.4c-8.2,9.8-16.6,19.5-25,29.1
			c-4.4,5.1-5.8,10.6-2.6,16.7c3,5.7,8.1,8.7,14.4,7.6c15.6-2.6,31.1-5.6,46.6-8.8c8.7-1.8,13-8.9,11.3-17.1
			c-1.5-7.4-8.4-11.9-16.9-10.9c-1.1,0.1-2.2,0.4-3.8,0.7c3.9-7.4,7.9-13.8,10.6-20.6c5.7-14.7-0.9-28.9-15.4-34.8
			c-16.9-6.9-39.7-1.1-50.3,13.7c-2.6,3.6-3.7,9.8-2.6,14.1C729.7,483.4,742.5,485.8,750.4,477.9z"/>
		<path class="st1" d="M415.4,573.9c11-1.6,23.9-3.4,36.8-5.4c10.4-1.6,16-8.1,14.6-16.6c-1.3-8.4-8.2-13-18.3-11.7
			c-12.7,1.6-25.3,3.5-37.9,5.5c-8.2,1.3-13.1,8-12.2,15.9C399.2,569.2,405.4,574.2,415.4,573.9z"/>
		<path class="st1" d="M450.3,584.8c-10.8,1.9-23.7,3.7-36.3,6.4c-7.2,1.6-11.2,9.2-9.8,16.3c1.3,6.8,7.4,12.2,14.6,11.3
			c12.7-1.6,25.3-3.7,37.8-6.2c7-1.4,11.2-8.4,10.3-15.3C465.9,590.1,459.9,584.9,450.3,584.8z"/>
	</g>
	<path class="st1" d="M832,367.8h-194l-57.1-57.1c0.3-2,0.5-4.1,0.5-6.2c0-20.7-16.9-37.6-37.6-37.6c-20.7,0-37.6,16.9-37.6,37.6
		c0,2.1,0.2,4.2,0.5,6.2l-57.1,57.1h-194c-17.2,0-31.2,14-31.2,31.2v331.2c0,17.2,14,31.2,31.2,31.2h411.1v5.9
		c0,12,9.8,21.7,21.7,21.7h112.7c12,0,21.7-9.8,21.7-21.7v-5.9h9c17.2,0,31.2-14,31.2-31.2V398.9C863.1,381.7,849.1,367.8,832,367.8
		z M557.7,315.5c-3.3,4.1-8.3,6.8-13.9,6.8c-5.6,0-10.7-2.7-13.9-6.8c-2.4-3-3.9-6.9-3.9-11c0-9.8,8-17.8,17.8-17.8
		s17.8,8,17.8,17.8C561.6,308.7,560.1,312.5,557.7,315.5z M515.8,329.5c6.9,7.7,16.9,12.5,28,12.5c11.1,0,21.1-4.8,28-12.5
		l38.2,38.2H477.6L515.8,329.5z M803.1,767.2c0,1.1-0.9,2-2,2H688.4c-1.1,0-2-0.9-2-2v-5.9v-19.8v-7.9c0-1.1,0.9-2,2-2h112.7
		c1.1,0,2,0.9,2,2v7.9v19.8V767.2z M843.3,730.1c0,6.3-5.1,11.4-11.4,11.4h-9v-7.9c0-12-9.8-21.7-21.7-21.7H688.4
		c-12,0-21.7,9.8-21.7,21.7v7.9H255.6c-6.3,0-11.4-5.1-11.4-11.4V398.9c0-6.3,5.1-11.4,11.4-11.4H832c6.3,0,11.4,5.1,11.4,11.4
		V730.1z"/>
</g>
</svg>
