<?xml version="1.0" encoding="utf-8"?>
<!-- Generator: Adobe Illustrator 22.1.0, SVG Export Plug-In . SVG Version: 6.00 Build 0)  -->
<svg version="1.1" id="Layer_1" xmlns="http://www.w3.org/2000/svg" xmlns:xlink="http://www.w3.org/1999/xlink" x="0px" y="0px"
	 viewBox="0 0 1080 1080" style="enable-background:new 0 0 1080 1080;" xml:space="preserve">
<style type="text/css">
	.st0{fill:#86A81D;}
	.st1{fill:#FFFFFF;}
</style>
<circle class="st0" cx="540" cy="540" r="467.9"/>
<g>
	<path class="st1" d="M789.5,436.5c40.9-20.6,68.8-50,76.8-101.5c-20.2,12.9-38.9,20.9-52,34.3c-13.4,13.6-21.3,32.6-31.5,48.9
		c-7.7-13.4-16.5-28.7-26.3-45.7c43.6-25.4,51.8-65,46.6-112.3c-34.1,24.6-49.9,58-57.2,102.7c-43.3-66.2-96.7-85.9-169.9-54.9
		c12.1,7.8,21.1,17.4,31.6,19.5c26.4,5.3,53.6,7,80.4,10.5c5.8,0.8,13,1.4,16.7,5c9.9,9.5,18.2,20.7,27.1,31.2
		c-44.7-16.1-84.8-8-124.9,14.1c16.1,7.3,32.7,16,49.6,16.4c25.7,0.6,51.6-4.7,77.4-7.2c4.6-0.4,12.2-0.9,13.6,1.4
		c8.5,14.3,15.6,29.5,23.1,44.4c-29.7-12.8-58.8-29.1-86.1-9.1c-23,16.9-39.3,43-59.3,65.8C596.4,445.1,566.3,388,535,328.5
		c-33.4,34.9-60.1,71.1-75.2,116.3c-59.6-33-104.1-81.2-151-127.5c-32.2,35.9-43.9,77.7-42.6,122.9
		c3.2,106.7,59.7,181.5,150.7,238.4c-23.8,3-43.3,4.4-62.3,8.1c-31.2,6-62.3,12.5-92.9,20.9c-19.5,5.4-27.4,23-15.6,33.5l101.8,57.6
		c13.1,2.5,24.8,14.5,37.7,15.5c12.9,1,28.6-3.4,39.4-10.7c33-22.3,65.7-23.2,103.1-11.3c76.5,24.4,205.4-29.1,224.9-137.9
		c5-27.8,7.9-56,10.3-84.2c2-24.1,8.3-45.8,26.1-64.1c12,19.4,3.4,54.9,43.1,50.1c-5-15.3-9.8-30.1-14.7-44.8
		c-9.3-27.4-9.3-27.4,14.9-44.7c3.4-2.4,6.3-5.4,9.8-8.4C825.6,447.8,801.2,460.6,789.5,436.5z M498.8,431.7
		c8.1-16.3,18.3-31.5,29.3-50.2c21,40.5,40,77.1,59.1,113.9c-24.6-9-49.5-17.3-73.9-26.9C486.5,458.1,486,457.4,498.8,431.7z
		 M728.2,621c-10.9,106.5-99.3,145.8-165.6,144.7c-19.9-0.3-40.1-5.9-59.2-12c-19.7-6.4-37.4-4.7-55.4,3.9
		c-14.6,7-29.1,14.2-43.8,21c-4.2,1.9-8.8,2.9-13.2,4.2L284,727.9c72.6-9.3,144.9-18.5,220.4-28.1c-5.3-4.1-8.9-7.1-12.8-9.7
		c-32.2-21.7-65.5-41.7-96.3-65.1c-63.7-48.4-98.7-112.7-97.5-193.8c0.3-21.3,7.2-42.5,11.9-67.9c12,11.4,20.1,18.6,27.7,26.4
		c55.7,57.3,122.7,95.7,198,121.1c36.1,12.1,71.7,25.6,108.7,38.9c7.2-15.6,14.4-32.5,22.7-48.9c4.9-9.8,10.8-19.2,17.5-27.8
		c12.7-16.2,25.3-19.6,44.5-12c13.3,5.3,25.9,12.4,40.7,19.5C727.4,518.7,733.2,571.6,728.2,621z"/>
	<circle class="st1" cx="713.3" cy="495" r="11.1"/>
</g>
</svg>
