<?xml version="1.0" encoding="utf-8"?>
<!-- Generator: Adobe Illustrator 22.1.0, SVG Export Plug-In . SVG Version: 6.00 Build 0)  -->
<svg version="1.1" id="Layer_1" xmlns="http://www.w3.org/2000/svg" xmlns:xlink="http://www.w3.org/1999/xlink" x="0px" y="0px"
	 viewBox="0 0 1080 1080" style="enable-background:new 0 0 1080 1080;" xml:space="preserve">
<style type="text/css">
	.st0{fill:#86A81D;}
	.st1{fill:none;stroke:#FFFFFF;stroke-width:21.5002;stroke-linecap:round;stroke-linejoin:round;stroke-miterlimit:10;}
	.st2{fill:#FFFFFF;}
</style>
<circle class="st0" cx="540" cy="540" r="467.9"/>
<g>
	<path class="st1" d="M570.3,165.4c-0.6,5.6-1.5,11.2-1.8,16.9c-1.2,19.8,1.1,38.9,10.6,56.7c1.9,3.6,4.4,6.9,6.9,10.8
		c2.8-2.3,5.2-4.3,7.7-6.2c5.7-4.2,11.4-8.5,17.4-12.3c2.6-1.7,5.8-2.3,9.1-3.5c-0.2,3.3-0.4,6.1-0.4,8.9
		c-0.3,12.2,3.8,23.3,8.5,34.2c5.5,12.8,11.4,25.5,16.4,38.6c6.8,17.9,9.3,36.7,9.8,55.8c0.4,13.5-1,26.7-5.2,39.6
		c-6.8,20.8-18.6,38.1-35.3,52.2c-10.4,8.9-22.2,15.5-35.1,20.2c-0.5,0.2-1,0.3-2.2,0.6c1.2-1.5,1.9-2.4,2.6-3.3
		c8.7-10.9,16.2-22.6,21.2-35.7c7.3-19.2,4.6-37.4-5.4-54.9c-4.4-7.7-9.4-15.2-13.4-23.1c-3.9-7.6-7-15.6-10.4-23.5
		c-0.3-0.8-0.5-1.5-1-2.8c-11.4,12.8-13.1,27.9-12.8,44.1c-2.4-0.9-4.6-1.5-6.7-2.5c-11-5.4-16.9-14.8-19.8-26.2
		c-3.8-14.9-2.4-29.9,0.8-44.7c1.7-8.1,4.2-16.1,6.3-24.1c0.2-0.9,0.5-1.8,0.9-3.2c-2.1,0.8-3.8,1.3-5.5,2.1
		c-23.4,9.9-42.5,24.8-55,47.3c-8.4,15.1-11.8,31.4-11.6,48.5c0.3,28.6,9.4,54.4,24.7,78.2c4.7,7.3,10.1,14,15.4,21.2
		c-4.7-1.4-9.4-2.7-14-4.3c-20.9-7.1-40.3-17-57-31.7c-16.4-14.5-27.3-32.1-30.7-53.9c-1.8-11.7-1.2-23.3,0.6-34.9
		c4.8-32.5,19.2-60.6,39.2-86.1c18.1-23.1,39.6-42.7,63-60.2c18.9-14.1,38.8-26.6,59.8-37.3c0.6-0.3,1.2-0.8,1.8-1.2
		C569.9,165.4,570.1,165.4,570.3,165.4z"/>
	<g>
		<path class="st2" d="M590.8,520.9c12.4,0,24.9,0,37.3,0c-10.4,28.3-20.9,56.8-31.1,84.6c-3.5,9.6-7.1,19.2-10.6,28.8
			c-15.8,0-31.4,0-46.6,0c-16.5,0-32.9,0-48.9,0c-11.9-30.4-23.9-61.1-35.6-91l-1.2-3.1c-1.2-3.2-2.5-6.3-3.7-9.5
			c-1.3-3.2-2.6-6.5-3.9-9.8c18.9,0,37.8,0,56.7,0l16.2,0l16.2,0h1.9l26.1,0L590.8,520.9 M590.8,499.4c-17.8,0-35.6,0-53.5,0
			c-0.6,0-1.2,0-1.9,0c-10.8,0-21.5,0-32.3,0c-20.8,0-41.5,0-62.3,0c-1.9,0-3.8,0-5.6,0.4c-9.9,2.2-15.1,12.5-11.3,22.4
			c3.3,8.6,6.8,17.2,10.1,25.8c13.7,35.1,27.5,70.2,41.2,105.4c0.6,1.6,1.3,2.4,3.3,2.4c0,0,0,0,0,0c20.4,0,40.8-0.1,61.2-0.1
			c19.8,0,39.5,0,59.3,0c0,0,0,0,0,0c1.8,0,2.5-0.6,3.1-2.2c16.2-44,32.5-88,48.6-132c1-2.8,1.2-6.2,0.7-9.1
			c-1.6-8.5-7.9-13.1-17.1-13.1C619.8,499.4,605.3,499.4,590.8,499.4L590.8,499.4z"/>
	</g>
	<g>
		<path class="st2" d="M577,694.3c-1.6,13-3.2,26.1-4.8,39.1c-0.9,7.6-1.9,15.2-2.8,22.8c-1,8.4-2.1,16.8-3.1,25.3
			c-1,7.9-1.9,15.7-2.9,23.6c-0.8,6.6-1.6,13.3-2.4,19.9c-1,7.9-2,15.8-2.9,23.7c-1,8.2-2,16.4-3.1,24.6c-2,15.9-3.9,31.9-5.9,47.8
			c-0.6,5-4.7,11-9.7,11.5c-0.1,0-0.2,0-0.4,0c-2.3,0-6-1.9-8.1-5.5c-1.8-2.9-2.4-7.4-3.1-13c-1.4-11.4-2.8-23-4.2-34.2
			c-0.8-6.3-1.6-12.5-2.3-18.8c-1-8.3-2-16.6-3-24.8c-1.1-9.2-2.2-18.4-3.4-27.6c-1-7.8-1.9-15.7-2.9-23.5
			c-0.8-6.6-1.6-13.1-2.5-19.7c-1-7.8-1.9-15.5-2.9-23.3c-1-8.4-2.1-16.9-3.1-25.3c-0.9-7.6-1.9-15.2-2.8-22.7H577 M601.3,672.8
			c-41.7,0-83.2,0-124.9,0c0.1,1.2,0.1,2.2,0.2,3.2c1.8,14.6,3.6,29.1,5.4,43.7c2,16.2,4,32.4,6,48.6c1.8,14.4,3.6,28.8,5.4,43.2
			c2.2,17.5,4.3,34.9,6.4,52.4c2.2,17.6,4.4,35.3,6.5,52.9c0.9,7.5,2,14.9,6.1,21.6c5.9,9.7,16.3,15.8,26.5,15.8
			c0.9,0,1.9-0.1,2.8-0.2c16-1.8,26.9-16.5,28.6-30.3c2-15.9,3.9-31.9,5.9-47.8c2-16.1,4-32.2,6-48.3c1.8-14.5,3.6-29,5.4-43.5
			c2-16,4-32,6-48.1c1.8-14.7,3.6-29.5,5.5-44.2C599.7,685.6,600.5,679.3,601.3,672.8L601.3,672.8z"/>
	</g>
</g>
</svg>
