<?xml version="1.0" encoding="utf-8"?>
<!-- Generator: Adobe Illustrator 22.1.0, SVG Export Plug-In . SVG Version: 6.00 Build 0)  -->
<svg version="1.1" id="Layer_1" xmlns="http://www.w3.org/2000/svg" xmlns:xlink="http://www.w3.org/1999/xlink" x="0px" y="0px"
	 viewBox="0 0 1080 1080" style="enable-background:new 0 0 1080 1080;" xml:space="preserve">
<style type="text/css">
	.st0{fill:#FFB321;}
	.st1{fill:#FFFFFF;}
</style>
<circle class="st0" cx="540" cy="540" r="467.9"/>
<g>
	<path class="st1" d="M815.7,258.2c-7.7-7.6-15.9-14-26.4-6.2c-13.8,10.3-33.1,15-36.9,35.8c-0.3,1.7-3.1,2.9-4.4,4.2
		c-1.7-0.8-2.6-1-3.3-1.6c-5.4-4.6-10.4-12.5-18.6-5.9c-8.1,6.6-3,12.7,2.2,18.6c1.2,1.4,0.4,4.5,0.5,6.8c-2.3-0.2-4.8,0-7-0.8
		c-1.6-0.6-2.7-3.3-4.2-3.4c-4.5-0.3-10.8-1.4-13.1,0.9c-2.3,2.3-1.3,8.7-0.4,13.1c0.6,2.7,3.6,4.8,6,7.7
		c-40.1,37.4-79.7,74.3-119.5,111.4c-5-2.7-9.3-5.3-13.7-7.5c-20.4-10.3-43.3-20.4-64.5-13.6c-27.3,8.9-41.5-3.4-56.2-21
		c-2.4-2.8-5.3-5.1-7.8-7.8c-16.1-17.7-32.7-33.5-59.3-19.5l-5.5,1.8c-7.2,2.4-10.1,11.4-5.3,17.3c0.1,0.2,0.3,0.3,0.4,0.5
		c10.2,11.2,21.1,21.7,32,32.3c11.7,11.5,23.5,22.8,38,36.9c-14,13.7-25.7,26-38.4,37.2c-8.7,7.7-10.4,18.9-0.5,25.4
		c8.6,5.7,6.8,11,2.8,17c-13.1,20-31.5,32.8-54.5,39.3c-8.8,2.5-14.4,0.9-18.9-8c-7.1-14.3-18.6-13.1-28.3-0.2
		c-6.5,8.7-15.4,17.7-25.2,21.6c-41.4,16.5-73.7,40.5-81.7,87.7v27.6c7.1,32,19.8,61.3,40.8,86.9c32.7,39.9,73.2,66.7,124.6,75.8
		h24.8c5.3-1.4,10.6-2.8,15.8-4.3c37.7-11.1,56.6-40.1,69.8-74.1c4.8-12.4,11.5-22.4,23.6-29.1c13.9-7.7,13.1-19.6-0.3-28.4
		c-4.1-2.7-9.2-9.3-8.5-13.1c4.8-26,18.8-46.4,41.5-60.4c5.7-3.5,9.9-3.7,14.8,3c8.1,11.1,20.8,10.4,26.5-1.7
		c8.2-17.4,24.1-23.8,39-32.6c3,2.8,5.3,5,7.6,7.2c38.7,38.6,77.3,77.3,116,115.9c4.9,4.9,10.3,10.8,17.4,3.9
		c7.6-7.3,2.1-13.3-3.3-18.6c-6.1-6.1-12.4-11.9-18.8-18.1c2.2-2.7,3.2-4.1,4.5-5.4c15.6-16.3,15.7-16.6-0.4-32.6
		c-27.3-27.3-54.4-54.7-82-81.7c-6.1-6-8.1-10.7-5.8-20c3.2-13,4.8-27.5,2.3-40.5c-3.6-19.4-11.4-38-17.9-58.3
		c35.4-38,72.2-77.5,108.9-116.9c1.9,1.1,2.8,1.5,3.4,2.1c5.1,4.7,10.2,10.8,17.5,4.1c7-6.5,2.5-12-2.1-17.8
		c-1.5-1.9-0.5-5.9-0.5-6.4c9.2,1.3,19.2,5.8,23.1,2.7c11.2-8.8-3.1-15-6.5-25.2c22.5-3.2,29.6-22.9,40.7-38.4
		C827.6,273.9,823.3,265.7,815.7,258.2z M574.7,453.4c-11.1,10.5-21.2,20-30.5,28.8c-14.3-14.7-27.9-28.5-41.6-42.6
		C527.7,433,550.8,440.3,574.7,453.4z M273,790.9c11.9-10.9,24.5-22.6,38.1-35.1c1.8,1.9,4.2,4.5,6.7,7.1
		c-12.9,12.4-25.3,24.2-38.9,37.3C277.5,798,275.4,794.7,273,790.9z M562.3,640.9c-23-10.1-42.9-2.5-65.5,26.4
		c-24.8,31.8-29.1,58.8-14.5,77.5c-8.7,16.5-17.6,31.6-24.7,47.4c-22.9,50.4-63,67.9-114.9,48.1c-15.9-6.1-30.6-15.4-47.1-23.9
		c23.9-24.6,43.9-48.6,74.1-60.7c11.8-4.8,22.9-11.6,34.1-17.7c8-4.3,10.6-10.8,3.8-17.8c-18.2-18.8-36.7-37.3-55.5-55.5
		c-7.2-7-13.5-3.4-17.6,4.3c-7,12.9-14.7,25.5-20.2,39c-11.7,28.4-35.7,45.9-56.2,67.8c-20.1-25.8-33-53.4-33.3-85.2
		c-0.4-39.4,24-61.2,57.3-76.2c15.1-6.8,29.5-15.4,45.8-24c21.1,14.9,51.9,8.6,84.2-20c23.9-21.2,29.8-40.4,19.3-59.7
		c10-12.9,19.7-25.4,29.2-37.5c14.3,14.8,28.9,29.8,44.3,45.7c-9.6,8.9-20,19.1-31,28.7c-9.1,7.9-8.9,14.7-0.2,22.8
		c10.1,9.4,19.9,19.1,29.2,29.2c8.4,9.1,15.1,7.8,22.7-0.9c9.3-10.7,19.2-20.9,28.4-30.9c14.9,15.4,29.5,30.3,44.2,45.5
		C587.8,621.1,575.4,630.7,562.3,640.9z M324.9,731.9c6.5-14.4,14.4-28.1,21.9-42.3c12.2,12.6,23.5,24.2,35.5,36.6
		c-13.4,7.1-27.1,14.9-41.5,21.5c-3,1.4-9.3-1.1-12.1-3.8C326,741.1,323.5,734.8,324.9,731.9z M520.7,532c6.1,7,11.9,13.7,18.5,21.3
		c-7.5,8.1-16.1,17.4-25.4,27.4c-7.7-7.7-14.3-14.3-21.7-21.7C501.4,550.2,510.6,541.5,520.7,532z M728.8,696.7
		c2.3,2.3,2.3,6.1,0,8.4c-2.3,2.3-6.1,2.3-8.4,0L402.7,387.4c-2.3-2.3-2.3-6.1,0-8.4c2.3-2.3,6.1-2.3,8.4,0L728.8,696.7z
		 M591.2,527.9c7.9-8.5,17.1-18.5,27.7-30c14,23.7,19.9,47.1,14.5,72.2C619.4,556.1,605.7,542.4,591.2,527.9z M574.6,515.7
		c-5.3-6.2-10.3-12-16.3-18.9c68.8-64.1,138.4-129,208-193.8c1.1,1.1,2.2,2.2,3.3,3.3C705,375.7,640.3,445.2,574.6,515.7z
		 M788.4,295.4c-4.3-4.4-7-7.3-10.7-11.1c7.3-4.9,14.1-9.6,20.9-14.2c1.4,1.1,2.7,2.2,4.1,3.4C798.2,280.3,793.7,287.2,788.4,295.4z
		"/>
	<path class="st1" d="M490.7,618.6c-3-1.7-8.4-2.3-11.2-0.7c-2.7,1.6-5.7,8.1-4.6,9.8c5.6,8.4-0.2,13.7-3.9,19.7
		c-5.8,9.4-11.9,18.5-17.6,28c-3.2,5.4-5.7,11.2-7.3,14.5c0.4,4.9-0.1,7.5,0.8,8.4c5.4,4.6,11.3,12.5,16.7,12.3
		c7.7-0.3,9.7-7.9,5.1-15.8c-1.2-2,1.1-6.7,2.8-9.5c7.8-13,16.2-25.6,23.9-38.6C501.9,635.5,500,623.9,490.7,618.6z"/>
	<path class="st1" d="M427.2,576.6c-13.5,7.7-26.4,16.7-39.9,24.5c-3.2,1.9-8,0.9-12,1.7c-4.4,1-10.3,1.3-12.6,4.2
		c-1.8,2.3-0.7,9.3,1.7,12.1c7.5,9.1,17.3,9.5,27.1,3.5c12.2-7.4,23.9-15.5,36.3-22.3c4.4-2.4,10.6-1.2,15.6-2.6
		c5.1-1.5,9.8-4.2,13.4-5.7C456.4,576.6,439.5,569.7,427.2,576.6z"/>
</g>
</svg>
